Land_normalized_Motion_pl11
version=1
nRows=16
nColumns=43
inDegrees=yes
endheader
time		pelvis_tilt		pelvis_list		pelvis_rotation		pelvis_tx		pelvis_ty		pelvis_tz		hip_flexion_r		hip_adduction_r		hip_rotation_r		knee_angle_r		ankle_angle_r		subtalar_angle_r		mtp_angle_r		hip_flexion_l		hip_adduction_l		hip_rotation_l		knee_angle_l		ankle_angle_l		subtalar_angle_l		mtp_angle_l		lumbar_extension		lumbar_bending		lumbar_rotation		neck_flexion		neck_lateral_bending		neck_rotation		arm_flex_r		arm_add_r		arm_rot_r		elbow_flex_r		pro_sup_r		wrist_flex_r		wrist_dev_r		hand_finger_flex_r		arm_flex_l		arm_add_l		arm_rot_l		elbow_flex_l		pro_sup_l		wrist_flex_l		wrist_dev_l		hand_finger_flex_l		
1.250000		-4.300036		16.492958		95.592180		-0.013867		0.539391		0.384376		67.223163		-6.705169		1.693560		-127.806243		11.337069		-2.339429		22.758392		64.125190		1.570944		-3.954179		-121.903648		16.623650		-11.264582		30.121816		-67.295456		0.231644		-2.859180		6.940145		2.133480		-5.900059		61.316318		-36.578359		19.812271		60.863132		93.178743		-36.212626		-2.190391		27.733956		57.684340		-35.484880		11.472798		74.098638		126.602773		-19.174743		9.879159		90.000210		
1.252576		-4.337221		16.166118		95.680738		-0.013852		0.535854		0.383689		67.897828		-6.815030		1.634122		-128.299733		11.510653		-2.581275		22.773417		64.791319		1.492263		-4.123802		-122.372369		16.807186		-11.219435		30.257772		-67.278662		0.275341		-2.876545		7.168198		2.106114		-5.953214		63.113426		-36.129386		20.479994		60.794539		92.938438		-36.261895		-2.279429		27.695692		59.609517		-34.858511		12.376171		74.090078		126.522512		-19.305101		10.067890		90.000210		
1.255152		-4.352749		15.939525		95.753340		-0.013920		0.532801		0.382897		68.408784		-6.906680		1.583312		-128.730197		11.672869		-2.679764		22.793134		65.288336		1.397847		-4.281134		-122.792580		16.984711		-11.227378		30.312526		-67.409049		0.346429		-2.884572		7.622221		2.024958		-5.951485		64.754175		-35.438970		20.585078		60.776987		92.855704		-36.236991		-2.323093		27.654724		61.300678		-34.025741		12.720715		74.169379		126.537880		-19.347468		10.071613		90.000210		
1.257727		-4.376308		15.637315		95.845200		-0.013947		0.529580		0.382189		69.018081		-6.992762		1.556354		-129.176369		11.881849		-2.833962		22.810932		65.882962		1.352586		-4.423657		-123.211698		17.201339		-11.223979		30.381411		-67.434559		0.414678		-2.892477		7.969557		1.961007		-5.998703		66.450413		-34.877740		21.008929		60.689643		92.780726		-36.101047		-2.375081		27.636048		63.109606		-33.346178		13.483235		74.156259		126.629522		-19.297927		10.094372		90.000210		
1.260303		-4.423147		15.244017		95.974435		-0.013885		0.525951		0.381409		69.771184		-7.069654		1.561700		-129.683512		12.069791		-3.074993		22.804142		66.614544		1.365900		-4.523669		-123.665282		17.429495		-11.168166		30.496765		-67.291486		0.458278		-2.934270		7.910872		2.003101		-6.168640		68.117348		-34.579468		21.926078		60.662218		92.601053		-35.907880		-2.530240		27.610360		65.040420		-32.921361		14.859717		74.114039		126.774914		-19.171896		10.244255		90.000210		
1.262879		-4.436051		15.007958		96.038407		-0.014061		0.523054		0.380571		70.290329		-7.176852		1.550328		-130.100797		12.196061		-3.156110		22.811310		67.095382		1.315719		-4.664043		-124.061582		17.630709		-11.173032		30.551311		-67.379717		0.531371		-2.892956		8.305712		1.935878		-6.207619		69.640176		-33.919244		22.016820		60.588318		92.497203		-35.882181		-2.603804		27.548146		66.600112		-32.089847		15.321659		74.200223		126.835968		-19.171500		10.274363		90.000210		
1.265455		-4.453694		14.693527		96.131957		-0.014109		0.520097		0.379853		70.892372		-7.252565		1.559632		-130.510199		12.338450		-3.249758		22.813230		67.655718		1.317274		-4.766664		-124.423388		17.902869		-11.174129		30.618222		-67.379045		0.604383		-2.891885		8.590470		1.901729		-6.325034		71.201296		-33.359707		22.412167		60.493813		92.409813		-35.750051		-2.733536		27.504502		68.300897		-31.455134		16.202693		74.198770		127.011108		-19.097182		10.349994		90.000210		
1.268030		-4.489543		14.336537		96.248663		-0.014115		0.516950		0.379064		71.579699		-7.363305		1.594334		-130.962265		12.431530		-3.347079		22.792161		68.268226		1.342543		-4.860673		-124.809656		18.197030		-11.123602		30.709368		-67.287607		0.648197		-2.911805		8.606344		1.960339		-6.540963		72.704073		-32.980346		23.100753		60.435244		92.255384		-35.586676		-3.004997		27.436999		70.070932		-31.006359		17.523318		74.239751		127.286914		-18.997573		10.566300		90.000210		
1.270606		-4.501103		14.078047		96.310466		-0.014163		0.514462		0.378349		72.098356		-7.433121		1.618106		-131.315461		12.502645		-3.354309		22.793753		68.707330		1.326359		-4.962047		-125.111384		18.454639		-11.132822		30.752535		-67.367719		0.708393		-2.894381		8.955540		1.909910		-6.614353		74.135860		-32.318299		23.244583		60.350033		92.189581		-35.529543		-3.149685		27.371529		71.583741		-30.275730		18.126624		74.308336		127.466751		-18.999786		10.646604		90.000210		
1.273182		-4.528616		13.760616		96.390622		-0.014139		0.511876		0.377701		72.704304		-7.514282		1.672612		-131.678662		12.541213		-3.327923		22.787368		69.209580		1.332965		-5.056242		-125.401325		18.791152		-11.122920		30.803451		-67.369826		0.748462		-2.917403		9.176959		1.908052		-6.771430		75.598789		-31.780151		23.693502		60.225345		92.140829		-35.380386		-3.408685		27.309287		73.244367		-29.783529		19.236652		74.355788		127.822432		-18.960787		10.819112		90.000210		
1.275758		-4.535680		13.510032		96.431032		-0.014145		0.509778		0.377119		73.191780		-7.575382		1.703768		-131.967260		12.584691		-3.296156		22.797354		69.593633		1.314206		-5.149749		-125.632115		19.031821		-11.148883		30.826151		-67.478679		0.798767		-2.885059		9.574617		1.826208		-6.805881		76.972086		-31.063316		23.732179		60.103820		92.131121		-35.328789		-3.514827		27.255380		74.662589		-29.026546		19.728698		74.414282		128.007426		-18.970496		10.847955		90.000210		
1.278333		-4.562874		13.217404		96.480117		-0.014076		0.507637		0.376564		73.744320		-7.630265		1.784719		-132.266938		12.576154		-3.200721		22.811586		70.018027		1.309207		-5.251944		-125.853681		19.336368		-11.174231		30.837388		-67.534538		0.818533		-2.914132		9.874608		1.788120		-6.900181		78.360689		-30.431739		24.010884		59.949947		92.206619		-35.177939		-3.739526		27.216646		76.219502		-28.529006		20.697358		74.477166		128.390044		-18.940611		10.927194		90.000210		
1.280909		-4.624901		12.925330		96.527971		-0.013964		0.505608		0.375985		74.291901		-7.682071		1.909175		-132.567015		12.545044		-3.072729		22.832289		70.423705		1.313499		-5.381692		-126.062303		19.616040		-11.182744		30.831119		-67.586051		0.803246		-2.971526		10.087448		1.793504		-6.996295		79.685555		-29.835462		24.314113		59.807129		92.318322		-35.019575		-4.050539		27.168502		77.750078		-28.105055		21.773362		74.590719		128.845388		-18.936016		11.065533		90.000210		
1.283485		-4.684384		12.648010		96.554657		-0.013875		0.503889		0.375463		74.789143		-7.717268		2.039180		-132.814812		12.541765		-2.964750		22.863621		70.779698		1.312700		-5.526047		-126.218199		19.839182		-11.239050		30.806203		-67.677117		0.784950		-3.006445		10.410431		1.751605		-7.028734		80.946156		-29.146785		24.390096		59.642425		92.440520		-34.913549		-4.301376		27.113688		79.153847		-27.530888		22.528567		74.685230		129.189093		-18.964869		11.165308		90.000210		
1.286061		-4.761135		12.358025		96.578766		-0.013764		0.502240		0.374936		75.297306		-7.736738		2.211988		-133.057162		12.521030		-2.828248		22.902767		71.140473		1.324640		-5.698035		-126.360093		20.066612		-11.317246		30.762491		-67.750404		0.745621		-3.076072		10.679960		1.735894		-7.075143		82.178946		-28.489170		24.529823		59.467288		92.627766		-34.763690		-4.624537		27.062160		80.577947		-27.072354		23.465747		74.801824		129.612877		-18.990254		11.297339		90.000210		
1.288636		-4.778891		12.086216		96.594058		-0.013783		0.500893		0.374457		75.728539		-7.740342		2.318572		-133.232253		12.550018		-2.771333		22.928467		71.471803		1.331914		-5.819935		-126.470744		20.246984		-11.405532		30.743536		-67.852944		0.771551		-3.052730		11.031577		1.648561		-7.076464		83.371783		-27.787054		24.492817		59.314813		92.729220		-34.694049		-4.766433		27.015426		81.814222		-26.397048		23.966169		74.857917		129.823243		-19.000538		11.314473		90.000210		
